<svg xmlns="http://www.w3.org/2000/svg" viewBox="0 0 64 64" role="img" aria-labelledby="foodTechLogoTitle">
  <title id="foodTechLogoTitle">Food + Tech logo</title>
  <defs>
    <linearGradient id="markBg" x1="10" y1="8" x2="54" y2="58" gradientUnits="userSpaceOnUse">
      <stop offset="0" stop-color="#1fbf7a"/>
      <stop offset="0.58" stop-color="#168a5f"/>
      <stop offset="1" stop-color="#0f5d42"/>
    </linearGradient>
    <linearGradient id="markGlow" x1="16" y1="13" x2="47" y2="51" gradientUnits="userSpaceOnUse">
      <stop offset="0" stop-color="#ffffff" stop-opacity="0.46"/>
      <stop offset="1" stop-color="#ffffff" stop-opacity="0"/>
    </linearGradient>
    <filter id="softShadow" x="-20%" y="-20%" width="140%" height="140%">
      <feDropShadow dx="0" dy="6" stdDeviation="5" flood-color="#0f2e22" flood-opacity="0.2"/>
    </filter>
  </defs>
  <rect x="6" y="6" width="52" height="52" rx="15" fill="url(#markBg)" filter="url(#softShadow)"/>
  <path d="M14 17c5.9-6.1 19.1-7.2 28.3-2.5 4.6 2.4 7.5 5.8 8.7 9.5-4.7-3.1-10-4.8-15.8-4.8-7.3 0-14.7 2.7-21.2 7.6V17z" fill="url(#markGlow)"/>
  <path d="M18.7 34.8c1.2 7.7 7.5 13 15.3 13s14.1-5.3 15.3-13H18.7z" fill="#fff" opacity="0.96"/>
  <path d="M17 32.4h34" fill="none" stroke="#fff" stroke-width="4.4" stroke-linecap="round"/>
  <path d="M24.2 30.3c.1-5 3.9-8.9 9.1-9.4 4.6-.4 8.8 2.2 10.3 6.3" fill="none" stroke="#d7f7e7" stroke-width="3" stroke-linecap="round"/>
  <path d="M27.3 24.7l-4.8-4.8M40.3 24.1l4.9-5" fill="none" stroke="#d7f7e7" stroke-width="2.7" stroke-linecap="round"/>
  <circle cx="21.3" cy="18.7" r="3.2" fill="#f6c85f"/>
  <circle cx="46.8" cy="17.5" r="3.2" fill="#f6c85f"/>
  <circle cx="33.9" cy="21" r="2.4" fill="#ffffff"/>
  <path d="M28.4 39.1h11.2" fill="none" stroke="#168a5f" stroke-width="2.8" stroke-linecap="round" opacity="0.86"/>
</svg>
